<svg version="1.1" xmlns="http://www.w3.org/2000/svg" viewBox="0 0 1809.6766602003277 774.8834503935791" width="1809.6766602003277" height="774.8834503935791">
  <!-- svg-source:excalidraw -->
  
  <defs>
    <style class="style-fonts">
      @font-face {
        font-family: "Virgil";
        src: url("https://excalidraw.com/Virgil.woff2");
      }
      @font-face {
        font-family: "Cascadia";
        src: url("https://excalidraw.com/Cascadia.woff2");
      }
      @font-face {
        font-family: "Assistant";
        src: url("https://excalidraw.com/Assistant-Regular.woff2");
      }
    </style>
    
  </defs>
  <rect x="0" y="0" width="1809.6766602003277" height="774.8834503935791" fill="#ffffff"></rect><g stroke-linecap="round" transform="translate(10 10) rotate(0 130.888671875 45.15869140625)"><path d="M22.58 0 C86.34 1.1, 149.45 0.49, 239.2 0 M22.58 0 C96.86 0.27, 171.49 -0.87, 239.2 0 M239.2 0 C254.17 -1.4, 263.08 6.05, 261.78 22.58 M239.2 0 C253.25 1.61, 261.47 6.02, 261.78 22.58 M261.78 22.58 C261.8 31.91, 260.97 42.21, 261.78 67.74 M261.78 22.58 C262.53 34.62, 262.17 44.71, 261.78 67.74 M261.78 67.74 C262.2 81.36, 252.34 89.37, 239.2 90.32 M261.78 67.74 C263.87 82.71, 254.91 88.36, 239.2 90.32 M239.2 90.32 C174.65 88.55, 110.66 91.37, 22.58 90.32 M239.2 90.32 C174.07 88.33, 108.89 88.34, 22.58 90.32 M22.58 90.32 C5.72 89.27, 0.18 82.81, 0 67.74 M22.58 90.32 C9.03 89.8, -1.73 82.76, 0 67.74 M0 67.74 C0.08 54.12, 1.08 44.34, 0 22.58 M0 67.74 C-0.45 50.54, 0.62 30.93, 0 22.58 M0 22.58 C0.51 6.82, 6.63 0.75, 22.58 0 M0 22.58 C2.09 9.76, 8.47 0.35, 22.58 0" stroke="#1e1e1e" stroke-width="2" fill="none"></path></g><g transform="translate(83.4187240600586 30.15869140625) rotate(0 57.469947814941406 25)"><text x="57.469947814941406" y="17.52" font-family="Virgil, Segoe UI Emoji" font-size="20px" fill="#1e1e1e" text-anchor="middle" style="white-space: pre;" direction="ltr" dominant-baseline="alphabetic">Requirement</text><text x="57.469947814941406" y="42.519999999999996" font-family="Virgil, Segoe UI Emoji" font-size="20px" fill="#1e1e1e" text-anchor="middle" style="white-space: pre;" direction="ltr" dominant-baseline="alphabetic">Analysis</text></g><g stroke-linecap="round" transform="translate(320.830078125 142.1923828125) rotate(0 130.888671875 45.15869140625)"><path d="M22.58 0 C93.43 1.68, 163.73 0.27, 239.2 0 M22.58 0 C84.72 1.14, 148.51 2.22, 239.2 0 M239.2 0 C254.65 1.08, 260.33 7.15, 261.78 22.58 M239.2 0 C255.45 1.88, 262.98 7.98, 261.78 22.58 M261.78 22.58 C261.93 37.7, 261.73 50.69, 261.78 67.74 M261.78 22.58 C262.93 35.21, 262.74 48.49, 261.78 67.74 M261.78 67.74 C261.04 82.81, 255.01 91.41, 239.2 90.32 M261.78 67.74 C263.14 80.56, 252.15 91.43, 239.2 90.32 M239.2 90.32 C185.14 88.39, 127.71 88.15, 22.58 90.32 M239.2 90.32 C178.98 89.41, 118.37 89.8, 22.58 90.32 M22.58 90.32 C8.56 88.37, -0.64 84.25, 0 67.74 M22.58 90.32 C8.41 90.37, 1.24 84.97, 0 67.74 M0 67.74 C-0.02 54.29, -1.94 35.96, 0 22.58 M0 67.74 C-0.27 51.67, 0.46 37.36, 0 22.58 M0 22.58 C-1.03 9.08, 7.24 0.48, 22.58 0 M0 22.58 C2.12 8.81, 6.38 1.08, 22.58 0" stroke="#1e1e1e" stroke-width="2" fill="none"></path></g><g stroke-linecap="round" transform="translate(638.0517578125 279.052734375) rotate(0 130.888671875 45.15869140625)"><path d="M22.58 0 C93.76 -1.19, 160.7 -0.97, 239.2 0 M22.58 0 C89.11 -0.72, 155.32 -1.49, 239.2 0 M239.2 0 C255.87 1.63, 262.37 7.66, 261.78 22.58 M239.2 0 C255.21 -0.87, 262.57 9.02, 261.78 22.58 M261.78 22.58 C261.13 37.52, 261.42 49.75, 261.78 67.74 M261.78 22.58 C262.38 35.23, 261.11 47.3, 261.78 67.74 M261.78 67.74 C263.23 84.41, 252.54 91.46, 239.2 90.32 M261.78 67.74 C263.61 82.88, 256.44 92.49, 239.2 90.32 M239.2 90.32 C162.62 89.81, 89.44 89.64, 22.58 90.32 M239.2 90.32 C181.1 90.8, 122.67 91.51, 22.58 90.32 M22.58 90.32 C6.03 89.03, 0.52 84.43, 0 67.74 M22.58 90.32 C8.52 89.47, 1.8 84.85, 0 67.74 M0 67.74 C-0.6 53.32, -1.48 41.54, 0 22.58 M0 67.74 C0.93 55.87, 1.11 43.44, 0 22.58 M0 22.58 C1.42 5.82, 8.77 -1.23, 22.58 0 M0 22.58 C0.37 5.46, 9.25 1.49, 22.58 0" stroke="#1e1e1e" stroke-width="2" fill="none"></path></g><g stroke-linecap="round" transform="translate(948.2179023385436 410.3473392487614) rotate(0 130.888671875 45.15869140625)"><path d="M22.58 0 C91.29 -0.24, 162.12 -1.07, 239.2 0 M22.58 0 C103.88 -0.92, 184.08 -0.44, 239.2 0 M239.2 0 C256.19 -0.94, 262.21 8.06, 261.78 22.58 M239.2 0 C253.48 -1.98, 260.55 6.02, 261.78 22.58 M261.78 22.58 C260.11 35.98, 262.97 49.26, 261.78 67.74 M261.78 22.58 C262.43 35.52, 262.21 48.38, 261.78 67.74 M261.78 67.74 C262.77 81.52, 255.96 89.46, 239.2 90.32 M261.78 67.74 C262.3 82.75, 254.85 92.44, 239.2 90.32 M239.2 90.32 C190.24 91.83, 144.78 91.98, 22.58 90.32 M239.2 90.32 C159.67 90.87, 81.02 89.46, 22.58 90.32 M22.58 90.32 C6.17 91.54, -1.92 82.41, 0 67.74 M22.58 90.32 C5.51 92.51, -1.03 83.12, 0 67.74 M0 67.74 C0.77 50.61, -0.49 35.37, 0 22.58 M0 67.74 C-0.7 50.66, -0.46 35.02, 0 22.58 M0 22.58 C1.82 7.54, 6.6 -1.69, 22.58 0 M0 22.58 C1.63 7.23, 8.82 -0.72, 22.58 0" stroke="#1e1e1e" stroke-width="2" fill="none"></path></g><g stroke-linecap="round" transform="translate(1240.842300580298 545.6536780761824) rotate(0 130.888671875 45.15869140625)"><path d="M22.58 0 C97.04 0.44, 172.45 -2.28, 239.2 0 M22.58 0 C71.07 -1.34, 117.92 -0.34, 239.2 0 M239.2 0 C252.82 -1.97, 260.3 6.88, 261.78 22.58 M239.2 0 C252.52 2.21, 263.07 6.49, 261.78 22.58 M261.78 22.58 C262.16 37.34, 262.87 53.17, 261.78 67.74 M261.78 22.58 C262.28 39.16, 261.03 56.55, 261.78 67.74 M261.78 67.74 C263.5 84.61, 252.44 89.38, 239.2 90.32 M261.78 67.74 C263.86 83.78, 256.03 92.13, 239.2 90.32 M239.2 90.32 C173.18 91.49, 111.71 90.98, 22.58 90.32 M239.2 90.32 C178.03 88.66, 116.57 87.84, 22.58 90.32 M22.58 90.32 C7.76 92, -1.32 82.69, 0 67.74 M22.58 90.32 C9.18 91.56, -1.05 80.74, 0 67.74 M0 67.74 C-0.77 54.21, -1.1 42.67, 0 22.58 M0 67.74 C-0.14 56.96, 0.87 46.8, 0 22.58 M0 22.58 C-0.06 8.27, 7.78 1.6, 22.58 0 M0 22.58 C-1.73 6.91, 7.74 1.9, 22.58 0" stroke="#1e1e1e" stroke-width="2" fill="none"></path></g><g stroke-linecap="round" transform="translate(1537.8993164503277 674.5660675810791) rotate(0 130.888671875 45.15869140625)"><path d="M22.58 0 C90.16 2.66, 157.76 0.25, 239.2 0 M22.58 0 C92.47 0.89, 162.18 0.88, 239.2 0 M239.2 0 C253.19 -0.76, 262.1 7.24, 261.78 22.58 M239.2 0 C253.43 -1.85, 261.44 8.46, 261.78 22.58 M261.78 22.58 C262.66 34.07, 261.09 49.87, 261.78 67.74 M261.78 22.58 C260.89 37.54, 262.15 50.86, 261.78 67.74 M261.78 67.74 C260.65 82.93, 253.86 89.39, 239.2 90.32 M261.78 67.74 C259.68 81.24, 252.05 91.44, 239.2 90.32 M239.2 90.32 C172.67 93.09, 106.21 91.25, 22.58 90.32 M239.2 90.32 C181.81 89.82, 122.32 90.26, 22.58 90.32 M22.58 90.32 C6.11 89.09, -0.37 84.52, 0 67.74 M22.58 90.32 C9.11 88.65, -1.51 81.87, 0 67.74 M0 67.74 C-1.08 53.34, 1.25 38.88, 0 22.58 M0 67.74 C-1.15 55.9, -0.86 45.47, 0 22.58 M0 22.58 C1.89 6.89, 9.52 -1.41, 22.58 0 M0 22.58 C-1.29 5.33, 8.01 1.19, 22.58 0" stroke="#1e1e1e" stroke-width="2" fill="none"></path></g><g stroke-linecap="round"><g transform="translate(274.3075667193309 55.285005958056814) rotate(0 102.1794607410256 45.078770614061796)"><path d="M1.11 1.1 C30.88 2.89, 145.68 -4.72, 179.52 10 C213.36 24.73, 199.84 76.21, 204.12 89.44 M0.24 0.63 C30.28 2.11, 147.8 -7.01, 181.65 8.04 C215.5 23.09, 199.26 77.17, 203.32 90.93" stroke="#1e1e1e" stroke-width="2" fill="none"></path></g><g transform="translate(274.3075667193309 55.285005958056814) rotate(0 102.1794607410256 45.078770614061796)"><path d="M194.69 67.46 C199.62 74.36, 201.54 84.92, 203.32 90.93 M194.69 67.46 C198.34 74.32, 200.05 83.69, 203.32 90.93" stroke="#1e1e1e" stroke-width="2" fill="none"></path></g><g transform="translate(274.3075667193309 55.285005958056814) rotate(0 102.1794607410256 45.078770614061796)"><path d="M211.79 67.41 C210.29 74.48, 205.78 85.06, 203.32 90.93 M211.79 67.41 C209.83 74.31, 205.94 83.7, 203.32 90.93" stroke="#1e1e1e" stroke-width="2" fill="none"></path></g></g><mask></mask><g stroke-linecap="round"><g transform="translate(590.681848918425 191.31587395791814) rotate(0 99.20989078762187 41.05750125342661)"><path d="M-0.29 -0.26 C29.21 0.89, 144.27 -6.78, 176.93 7 C209.59 20.79, 192.25 69.88, 195.68 82.44 M1.76 -1.45 C31.2 -0.14, 143.81 -5.91, 176.54 8.27 C209.28 22.46, 195.17 71.16, 198.19 83.66" stroke="#1e1e1e" stroke-width="2" fill="none"></path></g><g transform="translate(590.681848918425 191.31587395791814) rotate(0 99.20989078762187 41.05750125342661)"><path d="M189.86 60.09 C191.89 68.83, 193.92 72.76, 198.19 83.66 M189.86 60.09 C191.72 66.91, 194.99 72.64, 198.19 83.66" stroke="#1e1e1e" stroke-width="2" fill="none"></path></g><g transform="translate(590.681848918425 191.31587395791814) rotate(0 99.20989078762187 41.05750125342661)"><path d="M206.96 60.25 C203.95 68.9, 200.95 72.78, 198.19 83.66 M206.96 60.25 C203.94 66.99, 202.32 72.67, 198.19 83.66" stroke="#1e1e1e" stroke-width="2" fill="none"></path></g></g><mask></mask><g stroke-linecap="round"><g transform="translate(907.9718898219835 325.82047745033833) rotate(0 96.33977871368973 40.80535353200693)"><path d="M1.16 0.31 C29.79 2, 139.5 -3.69, 171.04 9.76 C202.59 23.21, 187.28 69.04, 190.41 81.02 M0.3 -0.57 C29.41 1.33, 141.86 -2.67, 173.42 11.12 C204.99 24.91, 186.95 70.22, 189.69 82.18" stroke="#1e1e1e" stroke-width="2" fill="none"></path></g><g transform="translate(907.9718898219835 325.82047745033833) rotate(0 96.33977871368973 40.80535353200693)"><path d="M182.78 58.15 C184.85 62.66, 185.4 69.47, 189.69 82.18 M182.78 58.15 C184.08 65.7, 186.13 71.49, 189.69 82.18" stroke="#1e1e1e" stroke-width="2" fill="none"></path></g><g transform="translate(907.9718898219835 325.82047745033833) rotate(0 96.33977871368973 40.80535353200693)"><path d="M199.84 59.33 C197.92 63.72, 194.47 70.26, 189.69 82.18 M199.84 59.33 C196.46 66.6, 193.82 72.06, 189.69 82.18" stroke="#1e1e1e" stroke-width="2" fill="none"></path></g></g><mask></mask><g stroke-linecap="round"><g transform="translate(1211.8918536403587 457.730431280109) rotate(0 90.06746398185908 41.53038503447584)"><path d="M-1.09 1.01 C26.21 1.85, 133.77 -7.83, 163.65 5.86 C193.53 19.56, 175.7 70.19, 178.19 83.19 M0.53 0.5 C27.7 1.37, 133.22 -7.14, 162.78 6.87 C192.33 20.89, 175.68 72.12, 177.85 84.6" stroke="#1e1e1e" stroke-width="2" fill="none"></path></g><g transform="translate(1211.8918536403587 457.730431280109) rotate(0 90.06746398185908 41.53038503447584)"><path d="M170.96 60.56 C174.8 67.75, 173.42 75.77, 177.85 84.6 M170.96 60.56 C173.99 67.82, 175.98 76.54, 177.85 84.6" stroke="#1e1e1e" stroke-width="2" fill="none"></path></g><g transform="translate(1211.8918536403587 457.730431280109) rotate(0 90.06746398185908 41.53038503447584)"><path d="M188.02 61.76 C186.95 68.45, 180.68 76.13, 177.85 84.6 M188.02 61.76 C185.66 68.76, 182.29 77.1, 177.85 84.6" stroke="#1e1e1e" stroke-width="2" fill="none"></path></g></g><mask></mask><g stroke-linecap="round"><g transform="translate(1511.5586270313315 587.8699182812479) rotate(0 91.04094209580649 42.5819849989698)"><path d="M-0.62 0.28 C26.64 2.9, 131.93 1.85, 162.42 15.9 C192.91 29.94, 179.02 73, 182.33 84.54 M1.25 -0.62 C28.53 1.61, 131.9 -0.45, 161.98 13.95 C192.05 28.35, 178.26 73.7, 181.71 85.78" stroke="#1e1e1e" stroke-width="2" fill="none"></path></g><g transform="translate(1511.5586270313315 587.8699182812479) rotate(0 91.04094209580649 42.5819849989698)"><path d="M173.03 62.33 C175.33 68.81, 177.19 72.51, 181.71 85.78 M173.03 62.33 C174.84 69.34, 178.11 75.98, 181.71 85.78" stroke="#1e1e1e" stroke-width="2" fill="none"></path></g><g transform="translate(1511.5586270313315 587.8699182812479) rotate(0 91.04094209580649 42.5819849989698)"><path d="M190.13 62.24 C188.9 68.65, 187.24 72.36, 181.71 85.78 M190.13 62.24 C187.03 69.33, 185.37 76, 181.71 85.78" stroke="#1e1e1e" stroke-width="2" fill="none"></path></g></g><mask></mask><g stroke-linecap="round"><g transform="translate(140.9832744459984 116.25418548196797) rotate(0 683.6849863318646 313.66273275193373)"><path d="M-0.3 1.02 C17 94.7, -130.12 460.56, 102.88 563.23 C335.89 665.9, 1181.97 608.21, 1397.75 617.06 M1.74 0.51 C19.02 94.9, -130.25 461.82, 102.27 564.76 C334.8 667.7, 1180.99 609.46, 1396.87 618.14" stroke="#1e1e1e" stroke-width="2" fill="none"></path></g><g transform="translate(140.9832744459984 116.25418548196797) rotate(0 683.6849863318646 313.66273275193373)"><path d="M1373.49 626.98 C1380.33 626.13, 1383.83 622.74, 1396.87 618.14 M1373.49 626.98 C1379.19 624.19, 1386.7 623.04, 1396.87 618.14" stroke="#1e1e1e" stroke-width="2" fill="none"></path></g><g transform="translate(140.9832744459984 116.25418548196797) rotate(0 683.6849863318646 313.66273275193373)"><path d="M1373.28 609.88 C1380.32 612.86, 1383.88 613.28, 1396.87 618.14 M1373.28 609.88 C1378.98 611.58, 1386.54 614.92, 1396.87 618.14" stroke="#1e1e1e" stroke-width="2" fill="none"></path></g></g><mask></mask><g stroke-linecap="round"><g transform="translate(473.62753629441386 233.44077436329076) rotate(0 0.002062108626432746 249.42294660747856)"><path d="M0.1 -0.53 C0.47 82.55, 1.41 415.28, 1.3 498.45 M-1.31 1.8 C-0.93 85, 0.33 416.48, 0.87 499.38" stroke="#1e1e1e" stroke-width="2" fill="none"></path></g><g transform="translate(473.62753629441386 233.44077436329076) rotate(0 0.002062108626432746 249.42294660747856)"><path d="M-7.8 475.93 C-6.77 482.78, -5.89 484.97, 0.87 499.38 M-7.8 475.93 C-5.63 480.7, -4.54 484.84, 0.87 499.38" stroke="#1e1e1e" stroke-width="2" fill="none"></path></g><g transform="translate(473.62753629441386 233.44077436329076) rotate(0 0.002062108626432746 249.42294660747856)"><path d="M9.3 475.84 C6.52 482.73, 3.58 484.93, 0.87 499.38 M9.3 475.84 C7.95 480.64, 5.52 484.8, 0.87 499.38" stroke="#1e1e1e" stroke-width="2" fill="none"></path></g></g><mask></mask><g stroke-linecap="round"><g transform="translate(785.2093479401431 371.1505333213372) rotate(0 0.7658525411283108 187.51197975431035)"><path d="M0.98 -0.56 C1.09 61.81, 1.35 311.66, 1.54 374.05 M0.03 1.76 C-0.11 64.35, 0.18 313.38, 0.41 375.59" stroke="#1e1e1e" stroke-width="2" fill="none"></path></g><g transform="translate(785.2093479401431 371.1505333213372) rotate(0 0.7658525411283108 187.51197975431035)"><path d="M-8.19 352.11 C-5.99 360.14, -1.88 369.74, 0.41 375.59 M-8.19 352.11 C-4.75 359.46, -3.92 365.29, 0.41 375.59" stroke="#1e1e1e" stroke-width="2" fill="none"></path></g><g transform="translate(785.2093479401431 371.1505333213372) rotate(0 0.7658525411283108 187.51197975431035)"><path d="M8.91 352.08 C4.8 360.25, 2.59 369.87, 0.41 375.59 M8.91 352.08 C7.59 359.42, 3.65 365.26, 0.41 375.59" stroke="#1e1e1e" stroke-width="2" fill="none"></path></g></g><mask></mask><g stroke-linecap="round"><g transform="translate(1098.2767237064481 503.070662247824) rotate(0 -1.4451596699350375 121.52860532511153)"><path d="M0.75 0.96 C0.26 41.35, -3.24 202.33, -3.65 242.64 M-0.31 0.42 C-0.37 40.43, -1.14 200.74, -1.4 240.81" stroke="#1e1e1e" stroke-width="2" fill="none"></path></g><g transform="translate(1098.2767237064481 503.070662247824) rotate(0 -1.4451596699350375 121.52860532511153)"><path d="M-9.82 217.27 C-6.12 221.46, -4.74 230.47, -1.4 240.81 M-9.82 217.27 C-7.78 225.65, -3.71 234.76, -1.4 240.81" stroke="#1e1e1e" stroke-width="2" fill="none"></path></g><g transform="translate(1098.2767237064481 503.070662247824) rotate(0 -1.4451596699350375 121.52860532511153)"><path d="M7.28 217.36 C6.83 221.64, 4.05 230.63, -1.4 240.81 M7.28 217.36 C3.16 225.54, 1.07 234.61, -1.4 240.81" stroke="#1e1e1e" stroke-width="2" fill="none"></path></g></g><mask></mask><g stroke-linecap="round"><g transform="translate(1392.7541977721214 637.3208883223374) rotate(0 -0.6903203889172573 50.83264271464452)"><path d="M0.39 -0.51 C0.18 16.91, -0.58 86.15, -0.51 103.48 M-0.86 -1.82 C-1.34 15.36, -1.94 84.64, -1.73 101.9" stroke="#1e1e1e" stroke-width="2" fill="none"></path></g><g transform="translate(1392.7541977721214 637.3208883223374) rotate(0 -0.6903203889172573 50.83264271464452)"><path d="M-10.28 78.41 C-8.22 86.04, -2.57 96.71, -1.73 101.9 M-10.28 78.41 C-6.65 87.5, -4.34 96.31, -1.73 101.9" stroke="#1e1e1e" stroke-width="2" fill="none"></path></g><g transform="translate(1392.7541977721214 637.3208883223374) rotate(0 -0.6903203889172573 50.83264271464452)"><path d="M6.82 78.41 C2.68 86.1, 2.13 96.77, -1.73 101.9 M6.82 78.41 C3.82 87.36, -0.5 96.17, -1.73 101.9" stroke="#1e1e1e" stroke-width="2" fill="none"></path></g></g><mask></mask><g transform="translate(419.0869828758441 163.42186381992576) rotate(0 33.64996337890625 25)"><text x="0" y="17.52" font-family="Virgil, Segoe UI Emoji" font-size="20px" fill="#1e1e1e" text-anchor="start" style="white-space: pre;" direction="ltr" dominant-baseline="alphabetic">System</text><text x="0" y="42.519999999999996" font-family="Virgil, Segoe UI Emoji" font-size="20px" fill="#1e1e1e" text-anchor="start" style="white-space: pre;" direction="ltr" dominant-baseline="alphabetic">Design</text></g><g transform="translate(707.1337958168328 310.75319423288056) rotate(0 71.64993286132812 12.5)"><text x="0" y="17.52" font-family="Virgil, Segoe UI Emoji" font-size="20px" fill="#1e1e1e" text-anchor="start" style="white-space: pre;" direction="ltr" dominant-baseline="alphabetic">Implementation</text></g><g transform="translate(1048.6080065956303 441.4278913212954) rotate(0 36.4599609375 12.5)"><text x="0" y="17.52" font-family="Virgil, Segoe UI Emoji" font-size="20px" fill="#1e1e1e" text-anchor="start" style="white-space: pre;" direction="ltr" dominant-baseline="alphabetic">Testing</text></g><g transform="translate(1317.609073503098 577.3122379284424) rotate(0 59.18994140625 12.5)"><text x="0" y="17.52" font-family="Virgil, Segoe UI Emoji" font-size="20px" fill="#1e1e1e" text-anchor="start" style="white-space: pre;" direction="ltr" dominant-baseline="alphabetic">Development</text></g><g transform="translate(1610.2774153726173 706.0801218922277) rotate(0 58.809959411621094 12.5)"><text x="0" y="17.52" font-family="Virgil, Segoe UI Emoji" font-size="20px" fill="#1e1e1e" text-anchor="start" style="white-space: pre;" direction="ltr" dominant-baseline="alphabetic">Maintenance</text></g></svg>